<?xml version="1.0" encoding="UTF-8"?>
<!DOCTYPE svg PUBLIC "-//W3C//DTD SVG 1.1//EN" "http://www.w3.org/Graphics/SVG/1.1/DTD/svg11.dtd">
<!-- Creator: CorelDRAW 2021 (64-Bit Evaluation Version) -->
<svg xmlns="http://www.w3.org/2000/svg" xml:space="preserve" width="4.402in" height="1.479in" version="1.1" style="shape-rendering:geometricPrecision; text-rendering:geometricPrecision; image-rendering:optimizeQuality; fill-rule:evenodd; clip-rule:evenodd"
viewBox="0 0 4402 1479"
 xmlns:xlink="http://www.w3.org/1999/xlink"
 xmlns:xodm="http://www.corel.com/coreldraw/odm/2003">
 <defs>
  <style type="text/css">
   <![CDATA[
    .fil1 {fill:#F47D35}
    .fil0 {fill:#666769;fill-rule:nonzero}
   ]]>
  </style>
 </defs>
 <g id="Layer_x0020_1">
  <metadata id="CorelCorpID_0Corel-Layer"/>
  <g id="_2434231745904">
   <path class="fil0" d="M280.04 207.63c139.01,0 245.73,24.44 320.17,73.32 74.44,48.88 111.66,128.92 111.66,240.13 0,112.1 -37.67,193.04 -113,242.81 -75.34,49.78 -182.96,74.66 -322.87,74.66l-65.91 0 0 312.1 -209.86 0 0 -918.81c45.74,-8.97 94.17,-15.24 145.29,-18.83 51.12,-3.58 95.96,-5.38 134.53,-5.38zm13.45 178.92c-15.24,0 -30.26,0.45 -45.06,1.35 -14.8,0.89 -27.58,1.79 -38.34,2.69l0 269.05 65.91 0c72.65,0 127.35,-9.87 164.12,-29.59 36.77,-19.73 55.15,-56.5 55.15,-110.31 0,-26.01 -4.71,-47.53 -14.12,-64.57 -9.42,-17.04 -22.87,-30.72 -40.36,-41.03 -17.49,-10.31 -38.79,-17.49 -63.9,-21.52 -25.11,-4.04 -52.91,-6.06 -83.41,-6.06zm851.77 764.11c-37.22,-78.25 -73.76,-159.64 -109.86,-243.72 -36.1,-84.3 -70.4,-167.71 -102.91,-250 -32.28,-82.5 -62.33,-161.43 -89.46,-236.76 -27.35,-75.33 -50.89,-142.6 -70.63,-201.79l231.39 0c17.49,54.04 36.77,112.11 58.29,174.21 21.3,62.33 43.05,124.43 65.25,186.09 22.2,61.88 43.28,121.07 63.67,177.8 20.18,56.5 39.69,105.38 58.3,146.63 17.49,-41.03 36.77,-89.68 57.4,-146.41 20.85,-56.5 42.38,-115.69 64.35,-177.57 22.19,-61.66 43.94,-123.76 65.24,-186.09 21.52,-62.11 40.81,-120.4 58.52,-174.66l223.31 0c-20.85,59.42 -44.84,126.9 -72.2,202.01 -27.13,75.33 -56.72,154.04 -89.01,236.54 -32.29,82.51 -66.37,165.92 -102.24,250.22 -35.87,84.3 -72.2,165.46 -109.19,243.49l-200.22 0z"/>
   <path class="fil1" d="M1953.83 536.97c16.07,-8.39 34.2,-15.17 50.46,-20.83 31.57,-10.98 65.48,-14.96 98.79,-14.96 42.58,0 84.82,7.06 123.69,24.93 35.76,16.44 66.56,39.69 91.74,69.91 26.19,31.42 44.45,67.81 56.53,106.76 13.56,43.76 19.09,89.56 19.09,135.29 0,47.53 -6.45,95.17 -22.85,139.93 -14.53,39.66 -35.76,75.85 -65.28,106.23 -28.92,29.77 -63.42,51.92 -101.98,67.19 -42.51,16.82 -87.95,23.54 -133.51,23.54 -46.69,0 -94.28,-2.71 -140.28,-11 -33.3,-6 -67.15,-12.74 -99.74,-21.9l-6.4 -1.8 0 -912.74 129.74 -22.32 0 331.76zm0 510.28c13.05,3.23 26.98,5.31 40.07,7.1 24.72,3.39 50.48,4.14 75.41,4.14 54.04,0 101.56,-16.46 138.26,-56.84 40.37,-44.41 52,-105.33 52,-163.58 0,-29.73 -2.8,-59.51 -9.43,-88.52 -5.7,-24.94 -15.17,-48.9 -29.98,-69.87 -13.81,-19.57 -31.57,-34.65 -52.9,-45.5 -24.21,-12.32 -51.72,-16.54 -78.65,-16.54 -27.87,0 -55.26,4.53 -81.14,15.04 -17.95,7.29 -37.96,16.66 -53.63,28.68l0 385.89z"/>
   <path class="fil1" d="M4110.22 805.78c24.59,19.54 47.77,41.19 69.77,63.52 28.07,28.49 54.73,58.37 80.14,89.25 25.91,31.49 50.81,63.81 74.55,96.97 21.22,29.63 41.51,60.19 59.59,91.83l7.5 13.13 -151.57 0 -2.56 -4.26c-17.72,-29.53 -37.27,-57.99 -57.99,-85.49 -21.78,-28.9 -44.75,-56.91 -68.89,-83.86 -23.04,-25.72 -47.3,-50.38 -72.93,-73.53 -18.02,-16.28 -36.82,-31.99 -56.51,-46.31l0 293.45 -129.74 0 0 -932.96 129.74 -22.32 0 561.02c16.31,-16.32 32.63,-32.64 48.95,-48.96 23.26,-23.25 46.11,-46.91 68.55,-70.95 21.43,-22.96 42.73,-46.04 63.86,-69.28 17.47,-19.21 34.8,-38.59 51.7,-58.31l2.63 -3.07 155.52 0 -13.54 14.72c-20.22,21.97 -40.28,44.08 -60.25,66.28 -22.23,24.7 -44.81,49.08 -67.71,73.16 -23.44,24.65 -46.98,49.19 -70.62,73.64 -20.08,20.76 -40.15,41.54 -60.18,62.34zm-1405.06 246.44c13.98,4.2 28.85,6.79 43.3,8.76l8.96 1.22 -18.43 110.52 -7.61 -0.18c-51.03,-1.19 -114.74,-9.83 -153.08,-47.11 -36.54,-35.53 -46.08,-88.83 -46.08,-137.78l0 -502.02 129.74 0 0 483.93c0,14.2 0.86,29.8 4.53,43.57 2.46,9.25 6.56,18.17 13.41,25.01 6.93,6.94 15.96,11.3 25.27,14.09zm288.55 108.25l-129.74 0 0 -674.85 129.74 0 0 674.85zm305.19 -531.08l0 531.09 -129.74 0 0 -624.81 6.65 -1.66c33.87,-8.47 68.79,-14.8 103.2,-20.64 48.81,-8.29 99.18,-10.98 148.63,-10.98 42.59,0 88.2,4.96 127.7,21.81 32.39,13.82 60.78,33.88 82.49,61.8 21.7,27.9 35.44,60.19 43.25,94.52 8.84,38.91 12.28,79.1 12.28,118.96l0 361.01 -129.74 0 0 -336.89c0,-32.17 -1.63,-65.63 -7.69,-97.27 -4.17,-21.84 -11.41,-44.63 -24.46,-62.9 -11.26,-15.77 -26.11,-26.8 -44.22,-33.69 -22.31,-8.48 -47.97,-10.88 -71.68,-10.88 -12.29,0 -24.58,0.42 -36.85,1.19 -12.16,0.76 -24.32,1.74 -36.44,2.99 -10.28,1.06 -20.57,2.36 -30.76,4.14 -4.21,0.73 -8.43,1.46 -12.63,2.23z"/>
   <path class="fil0" d="M1832.89 1283.7l27.34 0 0 195.3 -27.34 0 0 -195.3zm392.85 195.3c-4.14,-6.95 -8.88,-14.75 -14.23,-23.39 -5.35,-8.64 -11.13,-17.61 -17.33,-26.91 -6.2,-9.3 -12.64,-18.74 -19.31,-28.32 -6.67,-9.58 -13.29,-18.83 -19.87,-27.76 -6.57,-8.93 -12.96,-17.33 -19.17,-25.22 -6.2,-7.89 -11.93,-14.84 -17.19,-20.85l0 152.47 -26.78 0 0 -195.3 21.71 0c8.83,9.39 18.27,20.34 28.32,32.83 10.06,12.5 20.01,25.36 29.87,38.61 9.87,13.24 19.17,26.26 27.9,39.03 8.74,12.78 16.11,24.15 22.13,34.1l0 -144.57 26.77 0 0 195.3 -22.82 0zm412.28 -195.3c-7.14,20.67 -13.95,39.78 -20.43,57.35 -6.48,17.57 -12.83,34.24 -19.02,50.02 -6.2,15.78 -12.35,30.86 -18.46,45.23 -6.11,14.37 -12.36,28.61 -18.74,42.7l-25.65 0c-6.39,-14.09 -12.63,-28.32 -18.74,-42.7 -6.1,-14.37 -12.3,-29.45 -18.6,-45.23 -6.29,-15.78 -12.73,-32.46 -19.3,-50.02 -6.58,-17.57 -13.34,-36.69 -20.29,-57.35l30.15 0c10.15,29.69 20.1,58.24 29.87,85.67 9.77,27.43 19.82,53.17 30.15,77.22 10.33,-23.86 20.39,-49.56 30.16,-77.08 9.77,-27.52 19.63,-56.13 29.59,-85.81l29.31 0zm210.21 195.3l0 -195.3 119.21 0 0 23.39 -91.88 0 0 58.06 81.73 0 0 22.83 -81.73 0 0 67.63 98.93 0 0 23.39 -126.26 0zm439.63 -81.73c3,3.76 6.81,8.69 11.41,14.8 4.6,6.11 9.35,12.87 14.23,20.3 4.89,7.42 9.72,15.17 14.52,23.25 4.79,8.08 8.88,15.87 12.26,23.39l-29.87 0c-3.76,-7.14 -7.84,-14.37 -12.26,-21.7 -4.42,-7.33 -8.88,-14.33 -13.39,-21 -4.51,-6.67 -8.98,-12.92 -13.39,-18.74 -4.41,-5.82 -8.41,-10.89 -11.98,-15.22 -2.44,0.19 -4.93,0.28 -7.47,0.28 -2.54,0 -5.12,0 -7.75,0l-24.52 0 0 76.38 -27.33 0 0 -192.48c7.7,-1.88 16.3,-3.15 25.79,-3.81 9.49,-0.66 18.18,-0.98 26.07,-0.98 27.43,0 48.33,5.17 62.7,15.5 14.37,10.33 21.56,25.74 21.56,46.22 0,12.96 -3.43,24.05 -10.28,33.26 -6.86,9.2 -16.96,16.06 -30.3,20.57zm-41.43 -91.59c-11.65,0 -20.57,0.28 -26.78,0.84l0 73.56 19.45 0c9.39,0 17.85,-0.47 25.36,-1.41 7.52,-0.94 13.86,-2.72 19.02,-5.35 5.17,-2.63 9.16,-6.34 11.98,-11.13 2.81,-4.79 4.22,-11.13 4.22,-19.02 0,-7.33 -1.41,-13.43 -4.22,-18.32 -2.82,-4.88 -6.62,-8.74 -11.41,-11.56 -4.79,-2.81 -10.43,-4.79 -16.91,-5.92 -6.48,-1.13 -13.39,-1.69 -20.71,-1.69zm436.81 -21.98l0 23.67 -61.44 0 0 171.63 -27.34 0 0 -171.63 -61.44 0 0 -23.67 150.22 0zm211.91 195.3l0 -195.3 119.21 0 0 23.39 -91.87 0 0 58.06 81.73 0 0 22.83 -81.73 0 0 67.63 98.92 0 0 23.39 -126.26 0zm439.62 -81.73c3,3.76 6.81,8.69 11.41,14.8 4.6,6.11 9.35,12.87 14.23,20.3 4.89,7.42 9.72,15.17 14.51,23.25 4.79,8.08 8.88,15.87 12.26,23.39l-29.87 0c-3.76,-7.14 -7.85,-14.37 -12.26,-21.7 -4.42,-7.33 -8.88,-14.33 -13.39,-21 -4.51,-6.67 -8.98,-12.92 -13.39,-18.74 -4.41,-5.82 -8.41,-10.89 -11.98,-15.22 -2.44,0.19 -4.93,0.28 -7.47,0.28 -2.54,0 -5.12,0 -7.75,0l-24.52 0 0 76.38 -27.34 0 0 -192.48c7.7,-1.88 16.3,-3.15 25.79,-3.81 9.49,-0.66 18.18,-0.98 26.07,-0.98 27.43,0 48.33,5.17 62.71,15.5 14.37,10.33 21.56,25.74 21.56,46.22 0,12.96 -3.43,24.05 -10.28,33.26 -6.86,9.2 -16.96,16.06 -30.3,20.57zm-41.43 -91.59c-11.65,0 -20.57,0.28 -26.77,0.84l0 73.56 19.44 0c9.39,0 17.85,-0.47 25.36,-1.41 7.52,-0.94 13.86,-2.72 19.02,-5.35 5.17,-2.63 9.16,-6.34 11.98,-11.13 2.82,-4.79 4.23,-11.13 4.23,-19.02 0,-7.33 -1.41,-13.43 -4.23,-18.32 -2.82,-4.88 -6.62,-8.74 -11.41,-11.56 -4.79,-2.81 -10.43,-4.79 -16.91,-5.92 -6.48,-1.13 -13.39,-1.69 -20.71,-1.69z"/>
   <path class="fil1" d="M2928.84 278.53c47.73,0 86.44,38.71 86.44,86.44 0,47.73 -38.71,86.44 -86.44,86.44 -47.73,0 -86.44,-38.71 -86.44,-86.44 0,-47.73 38.7,-86.44 86.44,-86.44z"/>
   <path class="fil0" d="M2928.85 144.83c60.78,0 115.81,24.65 155.65,64.48 39.83,39.83 64.48,94.88 64.48,155.65 0,60.78 -24.65,115.82 -64.48,155.65 -11.87,11.87 -25.1,22.39 -39.43,31.31l0 -63.35c1.26,-1.19 2.52,-2.41 3.75,-3.64 30.7,-30.7 49.69,-73.12 49.69,-119.98 0,-46.85 -19,-89.28 -49.69,-119.98 -30.7,-30.7 -73.13,-49.69 -119.98,-49.69 -46.85,0 -89.28,19 -119.98,49.69 -30.7,30.7 -49.7,73.12 -49.7,119.98 0,46.85 19,89.28 49.7,119.98 1.23,1.23 2.48,2.44 3.74,3.63l0 63.36c-14.33,-8.93 -27.55,-19.44 -39.42,-31.31 -39.84,-39.83 -64.48,-94.88 -64.48,-155.65 0,-60.78 24.65,-115.82 64.48,-155.65 39.83,-39.83 94.88,-64.48 155.65,-64.48z"/>
   <path class="fil1" d="M2928.84 0l0 0c12.2,0 22.18,9.98 22.18,22.18l0 57.69c0,12.2 -9.98,22.18 -22.18,22.18l0 0c-12.2,0 -22.18,-9.98 -22.18,-22.18l0 -57.69c0,-12.2 9.98,-22.18 22.18,-22.18z"/>
   <path class="fil1" d="M3293.81 364.97l0 0c0,12.2 -9.98,22.18 -22.18,22.18l-57.7 0c-12.19,0 -22.18,-9.98 -22.18,-22.18l0 0c0,-12.2 9.98,-22.18 22.18,-22.18l57.7 0c12.19,0 22.18,9.98 22.18,22.18z"/>
   <path class="fil1" d="M3186.92 106.9l0 0c8.63,8.63 8.63,22.74 0,31.36l-40.8 40.8c-8.63,8.62 -22.74,8.63 -31.37,0l0 0c-8.62,-8.63 -8.62,-22.74 0,-31.36l40.8 -40.8c8.63,-8.63 22.74,-8.63 31.37,0z"/>
   <path class="fil1" d="M2670.77 106.9l0 0c8.63,-8.63 22.74,-8.63 31.37,0l40.8 40.8c8.63,8.62 8.63,22.74 0,31.36l0 0c-8.63,8.63 -22.74,8.62 -31.37,0l-40.8 -40.8c-8.63,-8.62 -8.63,-22.74 0,-31.36z"/>
   <path class="fil1" d="M2563.87 364.97l0 0c0,-12.2 9.98,-22.18 22.18,-22.18l57.7 0c12.2,0 22.18,9.98 22.18,22.18l0 0c0,12.2 -9.98,22.18 -22.18,22.18l-57.7 0c-12.2,0 -22.18,-9.98 -22.18,-22.18z"/>
  </g>
 </g>
</svg>
