<svg xmlns="http://www.w3.org/2000/svg" xmlns:xlink="http://www.w3.org/1999/xlink" width="190" height="68" viewBox="0 0 190 68" fill="none"><path d="M73.2018 24.5153C73.7912 12.1547 64.2488 1.65671 51.8882 1.06731C39.5277 0.477912 29.0296 10.0203 28.4402 22.3809C27.8508 34.7415 37.3933 45.2395 49.7539 45.8289C62.1144 46.4183 72.6124 36.8759 73.2018 24.5153Z" fill="#ED9519"></path><mask id="mask0_961_593" style="mask-type:luminance" maskUnits="userSpaceOnUse" x="32" y="6" width="36" height="36"><path d="M53.0461 40.8753C62.5519 39.3289 69.0042 30.3694 67.4578 20.8636C65.9114 11.3579 56.9518 4.90553 47.4461 6.45193C37.9403 7.99834 31.488 16.9579 33.0344 26.4637C34.5808 35.9694 43.5404 42.4217 53.0461 40.8753Z" fill="white"></path></mask><g mask="url(#mask0_961_593)"><rect x="32.8047" y="6.23291" width="35.0375" height="35.0375" fill="url(#pattern0_961_593)"></rect></g><mask id="mask1_961_593" style="mask-type:luminance" maskUnits="userSpaceOnUse" x="35" y="9" width="30" height="30"><path d="M35.7129 23.6652C35.7129 26.5389 36.565 29.3481 38.1616 31.7375C39.7581 34.1269 42.0274 35.9892 44.6823 37.0889C47.3373 38.1886 50.2587 38.4764 53.0772 37.9157C55.8957 37.3551 58.4847 35.9713 60.5167 33.9393C62.5487 31.9073 63.9325 29.3183 64.4931 26.4998C65.0538 23.6813 64.766 20.7599 63.6663 18.1049C62.5666 15.45 60.7043 13.1807 58.3149 11.5842C55.9255 9.98765 53.1163 9.1355 50.2426 9.1355C46.3891 9.1355 42.6934 10.6663 39.9686 13.3911C37.2437 16.116 35.7129 19.8117 35.7129 23.6652Z" fill="white"></path></mask><g mask="url(#mask1_961_593)"><rect x="35.7129" y="9.1355" width="29.221" height="29.221" fill="url(#pattern1_961_593)"></rect></g><path fill-rule="evenodd" clip-rule="evenodd" d="M56.6014 10.3759L56.5437 10.3413C56.5033 10.2952 56.4514 10.3067 56.4052 10.3067C55.3605 10.3574 54.339 10.633 53.4104 11.1145L53.2546 11.2473C53.1524 11.2889 53.0643 11.359 53.0007 11.4492L52.3833 11.8993L52.1467 12.032C51.1525 12.6993 50.1132 13.297 49.0365 13.8208C48.6486 14.0145 48.2032 14.0596 47.7843 13.9478L46.9246 13.7112C46.3279 13.5438 45.6893 13.6185 45.1473 13.9189C44.9973 13.9997 44.9684 14.0517 45.0954 14.2017C45.6724 14.8768 46.1975 15.5635 46.7457 16.2444C46.7053 16.3194 46.6245 16.3252 46.5495 16.3309C46.3179 16.36 46.1007 16.4586 45.9263 16.6137L44.8184 17.5369L41.6851 20.1682L40.3348 21.3223C40.2944 21.3627 40.2252 21.3915 40.2425 21.4608C40.2598 21.53 40.3291 21.4896 40.3752 21.4896C40.5714 21.4896 40.5483 21.5993 40.4676 21.7204C40.4243 21.7694 40.3781 21.8157 40.3291 21.8589L37.5766 24.5133C37.5314 24.5452 37.4936 24.5864 37.4658 24.6342C37.4379 24.682 37.4206 24.7352 37.415 24.7903C38.1998 24.3806 38.9615 23.9997 39.7232 23.6073C41.0273 22.9226 42.3294 22.234 43.6297 21.5416C43.7855 21.4608 43.8951 21.4608 43.8951 21.6627C43.8951 21.8647 43.9701 21.7954 44.0625 21.7551C44.128 21.72 44.1915 21.6815 44.2529 21.6396C45.1127 21.1088 45.984 20.5837 46.8322 20.047C47.2636 19.805 47.6764 19.5311 48.0671 19.2276C48.3614 19.1526 48.5403 18.8987 48.7826 18.7487H48.8288L50.6291 20.9587C50.7041 21.0511 50.7561 21.1261 50.8715 20.9876C51.2248 20.5879 51.4287 20.0781 51.4485 19.545C51.4533 19.273 51.4378 19.0011 51.4023 18.7314C51.3519 18.4328 51.3649 18.1269 51.4405 17.8336C51.516 17.5403 51.6524 17.2662 51.8409 17.0291C52.239 16.5329 52.643 16.0424 53.0757 15.575L54.426 14.1267L54.8472 13.7516C54.9523 13.7093 55.0426 13.6371 55.1069 13.5439L55.2858 13.4054C55.5099 13.1248 55.7033 12.8211 55.8628 12.4994C56.1936 11.9719 56.4445 11.3982 56.6072 10.7972C56.6476 10.6645 56.7168 10.5144 56.6072 10.3817L56.6014 10.3759Z" fill="url(#paint0_radial_961_593)"></path><path fill-rule="evenodd" clip-rule="evenodd" d="M45.0319 22.2223C45.0237 22.2235 45.0157 22.2266 45.0088 22.2312C45.0018 22.2359 44.9959 22.2419 44.9915 22.2491C44.9871 22.2562 44.9843 22.2642 44.9833 22.2726C44.9823 22.2809 44.9832 22.2893 44.9858 22.2973C44.9858 22.355 45.0204 22.4185 45.0896 22.3839C45.1589 22.3492 45.1993 22.355 45.1704 22.2858C45.1416 22.2165 45.1185 22.2223 45.0319 22.2223Z" fill="url(#paint1_radial_961_593)"></path><path fill-rule="evenodd" clip-rule="evenodd" d="M5.42989 36.175C6.81611 37.0825 8.44783 37.5418 10.1039 37.4907C12.5043 37.4907 14.8067 36.0769 14.8067 32.909C14.8067 30.1566 13.3699 28.6216 8.85748 25.9327C4.53549 23.3706 1.3041 21.0048 1.3041 16.2385C1.3041 10.7336 5.87998 7.69263 11.3503 7.69263C14.9048 7.69263 16.9244 8.26966 19.1633 8.48893C18.7641 10.8195 18.4868 13.1693 18.3324 15.5287C18.1708 15.7538 16.9879 15.7538 16.7917 15.6268C16.4109 12.6493 15.8973 11.2125 14.7144 10.4335C13.5731 9.66935 12.2137 9.29858 10.8425 9.37757C10.2265 9.35109 9.61172 9.45193 9.0365 9.6738C8.46129 9.89566 7.93801 10.2338 7.49936 10.667C7.06072 11.1002 6.71613 11.6193 6.48714 12.1917C6.25815 12.7641 6.14968 13.3776 6.1685 13.9938C6.13387 16.3943 7.32257 17.7734 9.37104 19.1468C11.4195 20.5201 13.2718 21.4549 15.1414 22.5743C18.2458 24.4958 20.1039 26.6136 20.1039 30.2258C20.1039 35.1825 16.0646 39.4064 8.77092 39.4064C5.63762 39.4064 2.62551 38.4832 1.47144 37.808C0.9925 37.1387 0.0980958 31.9511 0 30.2547C0.132718 29.9315 1.37911 29.6141 1.60415 29.7411C2.58511 32.9725 3.66994 34.9171 5.42989 36.175Z" fill="#2F2F2F"></path><path fill-rule="evenodd" clip-rule="evenodd" d="M84.9339 8.6333C86.6303 8.6333 88.1133 8.7891 91.6679 8.7891C95.0031 8.7891 96.8265 8.6333 98.2114 8.6333C98.4025 9.11914 98.4025 9.6593 98.2114 10.1451C96.9246 10.2721 96.3534 10.4279 95.759 10.5202C94.6569 10.8664 94.5588 11.3742 94.5299 12.5687C94.4376 13.8555 94.4376 17.5081 94.3741 22.2282C94.3741 27.7043 94.4376 32.6148 94.5299 34.3113C94.5472 34.6101 94.6399 34.8996 94.7993 35.1529C94.9587 35.4062 95.1797 35.6149 95.4417 35.7597C96.6361 36.1059 100.479 36.1059 102.585 36.0424C103.595 36.0424 104.472 35.725 105.384 34.4036C106.601 32.6428 107.644 30.7683 108.5 28.8064C108.778 28.7972 109.054 28.8435 109.314 28.9426C109.574 29.0417 109.811 29.1915 110.012 29.3834C109.792 30.9588 108.344 36.1809 107.34 37.7851C107.15 38.1659 106.642 38.4487 104.945 38.4487C101.42 38.4487 94.5588 38.1948 91.5121 38.1948C88.4653 38.1948 85.7417 38.3563 84.3684 38.3563C84.1773 37.8705 84.1773 37.3303 84.3684 36.8445C85.394 36.7444 86.4131 36.5864 87.4209 36.3713C88.3961 36.0886 88.7077 35.5231 88.8 34.421C88.8981 33.163 89.025 28.189 89.025 22.586C89.025 17.208 89.025 14.4729 88.8981 12.9611C88.8635 11.4204 88.6788 10.7914 87.4497 10.5029C86.5862 10.3288 85.7134 10.2036 84.8358 10.1278C84.6781 9.6352 84.7131 9.10109 84.9339 8.6333Z" fill="#2F2F2F"></path><path fill-rule="evenodd" clip-rule="evenodd" d="M122.926 32.6434C125.505 26.6019 129.758 15.0208 130.889 11.749C131.273 10.7597 131.568 9.73821 131.772 8.69653C132.21 8.73116 132.926 8.78886 133.814 8.78886C134.703 8.78886 135.355 8.73116 135.799 8.69653C135.984 9.45245 136.272 10.4623 136.555 11.3394C137.877 14.9574 142.499 28.3041 144.201 32.4242C145.707 36.0422 145.995 36.3249 149.515 36.8616C149.646 37.3648 149.604 37.8975 149.394 38.3734C148.165 38.3734 145.834 38.2118 142.943 38.2118C139.792 38.2118 137.53 38.3734 136.145 38.3734C135.984 38.1195 135.92 37.0174 136.145 36.8616C136.976 36.7282 137.795 36.5354 138.598 36.2845C138.711 36.2475 138.815 36.1869 138.903 36.1069C138.99 36.0268 139.06 35.9291 139.108 35.8201C139.155 35.7111 139.179 35.5933 139.178 35.4744C139.176 35.3556 139.15 35.2384 139.1 35.1305C138.627 33.307 137.305 29.5621 136.521 27.5829C136.457 27.4848 136.238 27.2655 136.082 27.2655C135.355 27.202 133.658 27.2655 131.927 27.2655C129.377 27.2655 128.592 27.2655 127.992 27.3001C127.807 27.3001 127.582 27.5482 127.49 27.7675C126.544 30.2545 125.257 33.7456 125.257 34.6919C125.257 35.4478 125.32 36.0479 126.642 36.3595C127.398 36.5211 128.119 36.6769 129.002 36.8039C129.161 37.3048 129.115 37.8483 128.875 38.3157C127.721 38.3157 125.54 38.1541 122.741 38.1541C120.473 38.1541 118.702 38.3157 117.484 38.3157C117.311 37.8266 117.311 37.293 117.484 36.8039C120.883 36.3307 121.523 35.9556 122.926 32.5857V32.6434ZM131.956 14.6746C131.044 17.2251 129.475 22.0376 128.621 24.4322C128.621 24.6515 128.621 24.7438 128.783 24.7785C129.285 24.8419 130.571 24.842 132.118 24.842C133.531 24.842 134.853 24.8419 135.355 24.7785C135.453 24.7785 135.545 24.588 135.545 24.4322C134.761 22.1645 133.058 17.0058 132.21 14.6746C132.126 14.6601 132.04 14.6601 131.956 14.6746Z" fill="#2F2F2F"></path><path fill-rule="evenodd" clip-rule="evenodd" d="M156.688 8.6333C157.842 8.6333 161.183 8.7891 162.822 8.7891C166.44 8.7891 169.019 8.6333 171.316 8.6333C177.138 8.6333 180.289 11.8762 180.289 16.0944C180.289 19.9951 177.703 22.3205 174.651 23.642C174.622 23.6766 174.559 23.9247 174.622 23.9593C175.944 26.2675 180.035 32.1417 182.395 34.5017C184.253 36.3252 184.703 36.5156 187.427 36.8618C187.553 37.0176 187.369 38.3102 187.144 38.4025C184.663 38.5583 180.317 38.4025 178.431 37.5196C177.503 37.0342 176.696 36.3458 176.07 35.5058C174.247 33.2726 171.57 28.8064 169.902 26.1925C169.754 25.9711 169.559 25.7857 169.331 25.6498C169.102 25.514 168.846 25.4313 168.581 25.4077C168.044 25.3442 166.63 25.4077 166.221 25.4077C166.128 25.4077 166.03 25.5981 166.03 25.6558C166.03 28.4602 166.03 32.2686 166.128 34.1209C166.157 35.6039 166.503 36.1347 167.542 36.3886C168.39 36.5791 169.019 36.6714 170.219 36.8618C170.311 37.1064 170.349 37.3676 170.332 37.6283C170.316 37.8889 170.244 38.1429 170.121 38.3736C169.117 38.3736 166.786 38.2121 163.295 38.2121C159.804 38.2121 157.628 38.3736 156.688 38.3736C156.497 38.1832 156.434 37.0465 156.688 36.8618C157.6 36.7349 158.384 36.6079 158.996 36.481C160.098 36.2328 160.444 35.6039 160.537 33.9651C160.571 32.6437 160.635 26.129 160.635 23.2669C160.635 18.4544 160.635 14.4902 160.571 12.7591C160.537 11.3742 160.162 10.7741 159.094 10.5202C158.241 10.3438 157.377 10.2186 156.509 10.1451C156.388 9.86239 156.417 8.7314 156.671 8.6333H156.688ZM166.44 10.7106C166.256 10.9105 166.146 11.167 166.128 11.4377C166.03 12.7879 166.03 18.0101 166.03 22.9495C166.03 23.1399 166.128 23.2669 166.249 23.2669C168.956 23.3592 171.131 23.238 172.02 22.7937C173.468 22.1359 174.726 20.6241 174.726 17.5081C174.726 13.2265 172.464 10.5202 167.963 10.5202C167.45 10.5221 166.938 10.5861 166.44 10.7106Z" fill="#2F2F2F"></path><path fill-rule="evenodd" clip-rule="evenodd" d="M85.3547 45.9905C86.3587 45.9905 88.1533 46.1059 89.8325 46.1059C91.5116 46.1059 93.8198 46.0366 94.3333 45.9905C94.4869 46.3288 94.5035 46.7135 94.3795 47.0638C93.9782 47.109 93.5809 47.1842 93.1908 47.2888C92.7234 47.4446 92.7234 47.785 92.9715 48.2755C93.7332 49.9547 96.3299 54.998 96.9588 56.0713C97.0392 56.0826 97.1208 56.0826 97.2012 56.0713C98.3206 54.144 100.565 50.047 101.079 48.5698C101.281 47.9178 101.258 47.5369 100.381 47.335C99.844 47.2253 99.4458 47.1561 98.6842 47.0638C98.5803 46.7075 98.6111 46.3255 98.7707 45.9905C99.7344 45.9905 101.281 46.1059 102.758 46.1059C104.46 46.1059 105.378 46.0366 106.52 45.9905C106.653 46.3359 106.653 46.7183 106.52 47.0638C106.021 47.1135 105.527 47.2042 105.043 47.335C104.01 47.6466 103.52 48.0966 102.556 49.5739C101.189 51.7493 98.8804 55.9212 98.1014 57.4157C97.8938 57.8593 97.778 58.3401 97.7609 58.8295C97.7609 60.3067 97.8302 61.8935 97.8533 63.6419C97.8994 64.8768 98.0321 65.5692 98.9727 65.7712C99.5497 65.9039 100.161 65.9962 101.01 66.129C101.057 66.4831 101.027 66.8432 100.923 67.1849C99.8671 67.1849 97.6974 67.0464 95.7298 67.0464C93.11 67.0464 91.7886 67.1849 90.5768 67.1849C90.4669 66.8415 90.4669 66.4724 90.5768 66.129C91.5174 65.9962 92.308 65.8808 92.8388 65.7481C93.7563 65.5462 93.8948 64.8537 93.8948 63.867C93.9583 62.1878 93.9583 60.8895 93.9583 59.4123C93.9462 58.8204 93.833 58.2349 93.6236 57.6812C92.9081 56.1117 90.9115 52.3725 89.5843 50.0413C88.3091 47.8024 87.9052 47.5312 86.8781 47.26C86.353 47.1449 85.821 47.064 85.2854 47.0176C85.2286 46.8503 85.2055 46.6734 85.2174 46.4971C85.2293 46.3208 85.2759 46.1486 85.3547 45.9905Z" fill="#F09836"></path><path fill-rule="evenodd" clip-rule="evenodd" d="M111.535 63.0822C113.376 58.7833 116.394 50.5375 117.202 48.2121C117.477 47.5075 117.687 46.7793 117.83 46.0366C118.142 46.0366 118.661 46.1059 119.285 46.1059C119.908 46.1059 120.387 46.0597 120.698 46.0366C120.831 46.5733 121.033 47.2888 121.235 47.9178C122.176 50.4913 125.47 59.9893 126.676 62.9206C127.755 65.4942 127.957 65.6962 130.468 66.077C130.557 66.437 130.525 66.8166 130.375 67.1561C129.504 67.1561 127.842 67.0407 125.759 67.0407C123.52 67.0407 121.904 67.1561 120.923 67.1561C120.808 66.9772 120.762 66.1924 120.923 66.077C121.51 65.988 122.089 65.853 122.654 65.6731C122.735 65.6495 122.809 65.6088 122.871 65.5538C122.934 65.4989 122.984 65.4309 123.018 65.3546C123.052 65.2784 123.07 65.1956 123.068 65.1121C123.067 65.0286 123.048 64.9464 123.012 64.871C122.678 63.5727 121.737 60.9068 121.177 59.4931C121.131 59.4238 120.975 59.268 120.866 59.268C120.352 59.2219 119.135 59.268 117.906 59.268C116.094 59.268 115.534 59.268 115.107 59.268C114.974 59.268 114.818 59.4469 114.749 59.6027C114.08 61.3742 113.157 63.8612 113.157 64.5536C113.157 65.0903 113.203 65.5173 114.143 65.7423C114.68 65.852 115.199 65.9674 115.822 66.0539C115.881 66.2304 115.903 66.4169 115.888 66.6022C115.874 66.7876 115.822 66.968 115.736 67.133C114.905 67.133 113.358 67.0176 111.368 67.0176C109.752 67.0176 108.483 67.133 107.623 67.133C107.501 66.7835 107.501 66.4034 107.623 66.0539C110.046 65.7193 110.508 65.4769 111.5 63.0534L111.535 63.0822ZM117.963 50.2951C117.317 52.107 116.197 55.5346 115.592 57.2195C115.592 57.3753 115.592 57.4446 115.701 57.4677C116.059 57.5081 116.976 57.5081 118.079 57.5081C119.083 57.5081 120.023 57.5081 120.387 57.4677C120.45 57.4677 120.519 57.3292 120.519 57.2195C119.942 55.6096 118.748 51.9339 118.142 50.2951C118.083 50.2835 118.022 50.2835 117.963 50.2951Z" fill="#F09836"></path><path fill-rule="evenodd" clip-rule="evenodd" d="M138.413 63.0822C140.248 58.7833 143.272 50.5375 144.079 48.2121C144.355 47.5075 144.565 46.7793 144.708 46.0366C145.02 46.0366 145.534 46.1059 146.163 46.1059C146.792 46.1059 147.259 46.0597 147.576 46.0366C147.709 46.5733 147.911 47.2888 148.113 47.9178C149.053 50.4913 152.348 59.9893 153.554 62.9206C154.633 65.4942 154.835 65.6962 157.34 66.077C157.434 66.4361 157.403 66.8166 157.253 67.1561C156.376 67.1561 154.72 67.0407 152.637 67.0407C150.398 67.0407 148.782 67.1561 147.801 67.1561C147.686 66.9772 147.64 66.1924 147.801 66.077C148.388 65.988 148.967 65.853 149.532 65.6731C149.613 65.6495 149.687 65.6088 149.749 65.5538C149.812 65.4989 149.862 65.4309 149.896 65.3546C149.93 65.2784 149.947 65.1956 149.946 65.1121C149.945 65.0286 149.926 64.9464 149.89 64.871C149.556 63.5727 148.615 60.9068 148.055 59.4931C148.009 59.4238 147.853 59.268 147.744 59.268C147.224 59.2219 146.013 59.268 144.783 59.268C142.972 59.268 142.412 59.268 141.985 59.268C141.852 59.268 141.691 59.4469 141.627 59.6027C140.952 61.3742 140.034 63.8612 140.034 64.5536C140.034 65.0903 140.081 65.5173 141.021 65.7423C141.558 65.852 142.071 65.9674 142.7 66.0539C142.759 66.2304 142.781 66.4169 142.766 66.6022C142.752 66.7876 142.7 66.968 142.614 67.133C141.783 67.133 140.236 67.0176 138.246 67.0176C136.63 67.0176 135.36 67.133 134.501 67.133C134.379 66.7835 134.379 66.4034 134.501 66.0539C136.924 65.7193 137.386 65.4769 138.378 63.0534L138.413 63.0822ZM144.841 50.2951C144.195 52.107 143.07 55.5346 142.47 57.2195C142.47 57.3753 142.47 57.4446 142.579 57.4677C142.937 57.5081 143.854 57.5081 144.957 57.5081C145.961 57.5081 146.901 57.5081 147.265 57.4677C147.334 57.4677 147.403 57.3292 147.403 57.2195C146.826 55.6096 145.632 51.9339 145.026 50.2951C144.965 50.2827 144.902 50.2827 144.841 50.2951Z" fill="#F09836"></path><path fill-rule="evenodd" clip-rule="evenodd" d="M161.933 45.9905C162.96 45.9905 164.662 46.1059 166.549 46.1059C167.403 46.1059 168.205 46.0597 168.586 46.0366C168.909 46.7285 169.342 47.3637 169.867 47.9178C172.954 51.8358 179.1 59.4585 180.998 61.7666C181.091 61.7666 181.091 61.7204 181.154 61.6973C181.154 57.1734 181.154 51.6858 180.998 49.2911C180.912 48.2351 180.64 47.6754 179.567 47.41C178.853 47.2356 178.125 47.1217 177.392 47.0695C177.213 46.9368 177.282 46.0655 177.392 45.9963C178.286 45.9963 179.833 46.1117 182.008 46.1117C183.531 46.1117 185.28 45.9963 185.793 45.9963C185.926 46.3417 185.926 46.7241 185.793 47.0695C185.316 47.1233 184.843 47.214 184.38 47.3407C183.416 47.6523 183.127 48.1717 183.058 49.3546C182.833 52.182 182.793 57.0176 182.77 62.5283C182.77 64.0747 182.77 66.0713 182.833 67.2542C182.389 67.1907 180.525 67.2542 179.948 67.2542C178.027 64.5421 169.4 53.5035 167.253 50.7683C167.138 50.6818 167.069 50.7683 167.069 50.7683C167.005 54.4209 167.069 61.8993 167.138 63.6016C167.207 65.0153 167.715 65.5058 168.615 65.7077C169.284 65.8855 169.964 66.0128 170.652 66.0886C170.766 66.4436 170.743 66.8283 170.589 67.1676C169.602 67.1676 168.032 67.0522 166.267 67.0522C164.293 67.0522 162.879 67.1676 161.962 67.1676C161.841 66.8182 161.841 66.438 161.962 66.0886C162.601 66.031 163.232 65.9033 163.843 65.7077C164.651 65.4884 164.997 64.946 165.124 63.717C165.303 61.9224 165.389 55.8289 165.459 49.6489C165.475 49.2571 165.381 48.8686 165.187 48.5278C164.993 48.1869 164.708 47.9075 164.362 47.7216C163.596 47.3333 162.756 47.1111 161.898 47.0695C161.805 46.7141 161.817 46.3391 161.933 45.9905Z" fill="#F09836"></path><path fill-rule="evenodd" clip-rule="evenodd" d="M70.5078 32.7302C69.0998 31.7492 68.7767 30.047 67.8131 28.7487C67.288 28.0158 67.5303 27.4676 68.2516 27.0695C69.4345 26.4059 70.6117 25.7596 71.8061 25.1018C72.4236 26.2155 71.8754 27.1849 72.1177 28.0966L70.5078 32.7302Z" fill="#3171B0"></path><path fill-rule="evenodd" clip-rule="evenodd" d="M61.2289 19.5508C62.4464 21.6396 63.6293 23.7574 64.9046 25.8116C65.5508 26.8445 65.6489 27.4735 64.3737 28.1197C62.2906 29.1757 60.3345 30.4279 58.2918 31.5819C57.7147 31.9166 57.0396 32.4244 56.5606 31.5819C55.1815 29.1469 53.3004 26.9657 52.7695 24.0805C55.6547 22.7014 58.1937 20.6702 61.2289 19.5508Z" fill="#2D75B6"></path><path fill-rule="evenodd" clip-rule="evenodd" d="M51.1886 25.0269C53.0063 27.0234 53.9468 29.5681 55.3836 31.8012C55.4942 31.9289 55.5727 32.0811 55.6127 32.2452C55.6526 32.4092 55.6529 32.5805 55.6134 32.7447C55.5739 32.9089 55.4958 33.0613 55.3856 33.1892C55.2754 33.3172 55.1362 33.417 54.9797 33.4804C54.3579 33.9079 53.7083 34.2935 53.0351 34.6345C51.079 35.4539 48.9151 38.2698 47.4956 37.2196C45.2625 35.5693 43.768 32.6495 43.1909 29.6143L51.1886 25.0269Z" fill="#2D75B6"></path><path fill-rule="evenodd" clip-rule="evenodd" d="M62.3314 41.5762C61.0157 39.3604 59.7174 37.1272 58.3729 34.9287C57.6805 33.8035 57.6805 33.0534 59.0365 32.3783C61.1138 31.3338 63.0757 30.0701 65.1069 28.9161C65.7301 28.5468 66.3591 28.2236 66.7745 29.0776C67.6747 30.9299 69.2327 32.4648 69.4404 34.6402C67.5074 37.4158 65.3839 39.972 62.3314 41.5762Z" fill="#2D75B6"></path><path fill-rule="evenodd" clip-rule="evenodd" d="M51.7196 44.7266C50.1328 43.3937 49.5442 41.4087 48.4825 39.7353C47.9054 38.7832 48.6152 38.4023 49.2846 38.0042C51.2349 36.8501 53.2142 35.7883 55.1184 34.5881C56.2724 33.8495 56.9245 34.2534 57.4957 35.3152C58.7191 37.5887 59.977 39.8449 61.2234 42.1126C58.3209 43.988 55.0953 44.6343 51.7196 44.7266Z" fill="#3074B6"></path><path fill-rule="evenodd" clip-rule="evenodd" d="M71.7947 23.9016C66.4052 26.6714 66.3995 26.6772 63.2258 20.8434C62.8276 20.1163 62.2621 19.4412 62.3775 18.5352C64.4029 17.3811 66.4572 16.3136 68.4422 15.1019C69.4231 14.5248 69.8559 14.7845 70.2944 15.7078C71.594 18.2305 72.1161 21.0821 71.7947 23.9016Z" fill="#2E74B6"></path><path fill-rule="evenodd" clip-rule="evenodd" d="M42.0429 30.6414C43.1565 32.6033 44.1837 34.6229 45.4185 36.5156C46.4052 38.0274 46.0706 38.8756 44.5183 39.6027C43.3123 40.1797 42.2102 40.9241 41.0561 41.5992C38.7076 40.3932 37.0169 38.4544 35.3493 36.4867C34.5241 35.5115 34.2414 34.7556 35.7243 34.017C37.8536 32.961 39.7289 31.3973 42.0429 30.6414Z" fill="#2E74B5"></path><path fill-rule="evenodd" clip-rule="evenodd" d="M43.6758 43.1803C43.0988 42.6032 42.0024 42.2454 43.4739 41.276C46.9361 39.0083 47.8766 39.4064 49.4058 44.2247H47.1669L43.6758 43.1803Z" fill="#3272B1"></path><path fill-rule="evenodd" clip-rule="evenodd" d="M185.713 1.02783C186.561 1.02783 187.39 1.27928 188.095 1.75038C188.8 2.22149 189.349 2.89107 189.674 3.67449C189.998 4.4579 190.083 5.31995 189.918 6.15162C189.752 6.98328 189.344 7.74721 188.744 8.34681C188.145 8.94641 187.381 9.35474 186.549 9.52017C185.717 9.6856 184.855 9.6007 184.072 9.2762C183.289 8.9517 182.619 8.40217 182.148 7.69712C181.677 6.99207 181.425 6.16315 181.425 5.31519C181.425 4.17811 181.877 3.08761 182.681 2.28357C183.485 1.47953 184.576 1.02783 185.713 1.02783ZM185.713 1.39136C184.937 1.39136 184.178 1.62149 183.533 2.05265C182.887 2.4838 182.384 3.09662 182.088 3.8136C181.791 4.53059 181.713 5.31954 181.864 6.08069C182.016 6.84184 182.389 7.54101 182.938 8.08976C183.487 8.63852 184.186 9.01223 184.947 9.16363C185.708 9.31503 186.497 9.23732 187.214 8.94034C187.931 8.64335 188.544 8.14043 188.975 7.49515C189.406 6.84988 189.636 6.09125 189.636 5.31519C189.635 4.27499 189.221 3.27784 188.486 2.54231C187.75 1.80678 186.753 1.39288 185.713 1.39136Z" fill="black"></path><path d="M183.832 7.49536V3.23266H185.722C186.102 3.23266 186.391 3.27143 186.589 3.34897C186.787 3.42457 186.945 3.55929 187.063 3.75314C187.181 3.94699 187.24 4.16119 187.24 4.39574C187.24 4.69814 187.142 4.95305 186.947 5.16047C186.751 5.36789 186.448 5.4997 186.039 5.55592C186.189 5.62764 186.302 5.6984 186.38 5.76818C186.544 5.91938 186.7 6.10838 186.848 6.33518L187.589 7.49536H186.88L186.316 6.60851C186.151 6.35263 186.015 6.15685 185.909 6.02115C185.802 5.88546 185.706 5.79047 185.621 5.7362C185.537 5.68192 185.452 5.64412 185.365 5.6228C185.301 5.60923 185.196 5.60244 185.051 5.60244H184.396V7.49536H183.832ZM184.396 5.11395H185.609C185.867 5.11395 186.068 5.08778 186.214 5.03544C186.359 4.98116 186.47 4.89587 186.545 4.77956C186.621 4.66131 186.659 4.53337 186.659 4.39574C186.659 4.19414 186.585 4.0284 186.438 3.89852C186.292 3.76865 186.062 3.70371 185.746 3.70371H184.396V5.11395Z" fill="black"></path><defs><pattern id="pattern0_961_593" patternContentUnits="objectBoundingBox" width="1" height="1"><use xlink:href="#image0_961_593" transform="scale(0.00395257)"></use></pattern><pattern id="pattern1_961_593" patternContentUnits="objectBoundingBox" width="1" height="1"><use xlink:href="#image1_961_593" transform="scale(0.00471698)"></use></pattern><radialGradient id="paint0_radial_961_593" cx="0" cy="0" r="1" gradientUnits="userSpaceOnUse" gradientTransform="translate(47.0515 17.5369) scale(9.07098 9.07098)"><stop stop-color="#3C484F"></stop><stop offset="0.25" stop-color="#313B43"></stop><stop offset="0.67" stop-color="#242B34"></stop><stop offset="1" stop-color="#1F252F"></stop></radialGradient><radialGradient id="paint1_radial_961_593" cx="0" cy="0" r="1" gradientUnits="userSpaceOnUse" gradientTransform="translate(45.0781 22.3146) scale(0.0923248)"><stop stop-color="#3C484F"></stop><stop offset="0.25" stop-color="#313B43"></stop><stop offset="0.67" stop-color="#242B34"></stop><stop offset="1" stop-color="#1F252F"></stop></radialGradient><image id="image0_961_593" width="253" height="253"></image><image id="image1_961_593" width="212" height="212"></image></defs></svg>